<?xml version="1.0" encoding="UTF-8" standalone="no"?>
<svg
   width="576pt"
   height="576pt"
   viewBox="0 0 576 576"
   version="1.1"
   id="svg34"
   sodipodi:docname="delta_sin.svg"
   inkscape:version="1.3.2 (091e20e, 2023-11-25, custom)"
   xmlns:inkscape="http://www.inkscape.org/namespaces/inkscape"
   xmlns:sodipodi="http://sodipodi.sourceforge.net/DTD/sodipodi-0.dtd"
   xmlns:xlink="http://www.w3.org/1999/xlink"
   xmlns="http://www.w3.org/2000/svg"
   xmlns:svg="http://www.w3.org/2000/svg"
   xmlns:rdf="http://www.w3.org/1999/02/22-rdf-syntax-ns#"
   xmlns:cc="http://creativecommons.org/ns#"
   xmlns:dc="http://purl.org/dc/elements/1.1/">
  <sodipodi:namedview
     id="namedview34"
     pagecolor="#ffffff"
     bordercolor="#000000"
     borderopacity="0.25"
     inkscape:showpageshadow="2"
     inkscape:pageopacity="0.0"
     inkscape:pagecheckerboard="0"
     inkscape:deskcolor="#d1d1d1"
     inkscape:document-units="pt"
     inkscape:zoom="2.5337993"
     inkscape:cx="384.00832"
     inkscape:cy="384.00832"
     inkscape:window-width="2880"
     inkscape:window-height="1676"
     inkscape:window-x="-12"
     inkscape:window-y="-12"
     inkscape:window-maximized="1"
     inkscape:current-layer="svg34" />
  <metadata
     id="metadata1">
    <rdf:RDF>
      <cc:Work>
        <dc:type
           rdf:resource="http://purl.org/dc/dcmitype/StillImage" />
        <dc:date>2024-12-28T15:31:28.860459</dc:date>
        <dc:format>image/svg+xml</dc:format>
        <dc:creator>
          <cc:Agent>
            <dc:title>Matplotlib v3.6.3, https://matplotlib.org/</dc:title>
          </cc:Agent>
        </dc:creator>
      </cc:Work>
    </rdf:RDF>
  </metadata>
  <defs
     id="defs1">
    <style
       type="text/css"
       id="style1">*{stroke-linejoin: round; stroke-linecap: butt}</style>
    <path
       id="DejaVuSans-73-4"
       d="m 2834,3397 v -544 q -243,125 -506,187 -262,63 -544,63 -428,0 -642,-131 -214,-131 -214,-394 0,-200 153,-314 153,-114 616,-217 l 197,-44 q 612,-131 870,-370 258,-239 258,-667 0,-488 -386,-773 Q 2250,-91 1575,-91 1294,-91 989,-36 684,19 347,128 v 594 q 319,-166 628,-249 309,-82 613,-82 406,0 624,139 219,139 219,392 0,234 -158,359 -157,125 -692,241 l -200,47 q -534,112 -772,345 -237,233 -237,639 0,494 350,762 350,269 994,269 318,0 599,-47 282,-46 519,-140 z"
       transform="scale(0.015625)" />
    <path
       id="DejaVuSans-69-6"
       d="m 603,3500 h 575 V 0 H 603 Z m 0,1363 h 575 V 4134 H 603 Z"
       transform="scale(0.015625)" />
    <path
       id="DejaVuSans-6e-8"
       d="M 3513,2113 V 0 h -575 v 2094 q 0,497 -194,743 -194,247 -581,247 -466,0 -735,-297 -269,-296 -269,-809 V 0 H 581 v 3500 h 578 v -544 q 207,316 486,472 280,156 646,156 603,0 912,-373 310,-373 310,-1098 z"
       transform="scale(0.015625)" />
    <path
       id="DejaVuSans-28-2"
       d="m 1984,4856 q -418,-718 -622,-1422 -203,-703 -203,-1425 0,-721 205,-1429 205,-708 620,-1424 h -500 q -468,735 -701,1444 -233,709 -233,1409 0,697 231,1403 232,707 703,1444 z"
       transform="scale(0.015625)" />
    <path
       id="DejaVuSans-Oblique-78-2"
       d="M 3841,3500 2234,1784 3219,0 H 2559 L 1819,1388 531,0 H -166 L 1556,1844 641,3500 h 659 l 672,-1266 1172,1266 z"
       transform="scale(0.015625)" />
    <path
       id="DejaVuSans-2b-6"
       d="M 2944,4013 V 2272 H 4684 V 1741 H 2944 V 0 H 2419 V 1741 H 678 v 531 h 1741 v 1741 z"
       transform="scale(0.015625)" />
    <path
       id="DejaVuSans-394-1"
       d="M 2188,4044 906,525 H 3472 Z M 50,0 1831,4666 h 716 L 4325,0 Z"
       transform="scale(0.015625)" />
    <path
       id="DejaVuSans-29-3"
       d="m 513,4856 h 500 q 468,-737 701,-1444 233,-706 233,-1403 0,-700 -233,-1409 -233,-709 -701,-1444 H 513 q 415,716 620,1424 205,708 205,1429 0,722 -205,1425 -205,704 -620,1422 z"
       transform="scale(0.015625)" />
  </defs>
  <g
     id="line2d_1">
    <path
       d="m 453.6,449.28 -0.0399,-5.02634 -0.11962,-5.02507 -0.19933,-5.02254 -0.27899,-5.01875 -0.35859,-5.01369 -0.43809,-5.00737 -0.51747,-4.99978 -0.59675,-4.99095 -0.67585,-4.98085 -0.75479,-4.9695 -0.83354,-4.9569 -0.91209,-4.94305 -0.9904,-4.92796 -1.06845,-4.91163 -1.14625,-4.89405 -1.22376,-4.87525 -1.30095,-4.85522 -1.37783,-4.83397 -1.45434,-4.81151 -1.5305,-4.78782 -1.60627,-4.76293 -1.68164,-4.73685 -1.75658,-4.70958 -1.83108,-4.68111 -1.90512,-4.65147 -1.97868,-4.62065 -2.05174,-4.58869 -2.12429,-4.55555 -2.1963,-4.52127 -2.26776,-4.48586 -2.33864,-4.44932 -2.40895,-4.41165 -2.47863,-4.37287 -2.54771,-4.333 -2.61612,-4.29203 -2.6839,-4.24998 -2.75099,-4.20687 -2.81739,-4.16269 -2.88308,-4.11746 -2.94804,-4.0712 -3.01227,-4.02392 -3.07573,-3.97562 -3.13842,-3.92632 -3.20032,-3.87603 -3.26141,-3.82476 -3.32169,-3.77254 -3.38113,-3.71936 -3.43971,-3.66525 -3.49743,-3.61021 -3.55427,-3.55427 -3.61021,-3.49743 -3.66525,-3.43971 -3.71936,-3.38113 -3.77254,-3.32169 -3.82477,-3.26141 -3.87603,-3.20032 -3.92631,-3.13842 -3.97562,-3.07573 -4.02392,-3.01227 -4.0712,-2.94804 -4.11747,-2.88308 -4.16268,-2.81739 -4.20687,-2.75099 -4.24998,-2.6839 -4.29203,-2.61613 -4.333,-2.5477 -4.37287,-2.47863 -4.41165,-2.40895 -4.44932,-2.33864 -4.48586,-2.26776 -4.52127,-2.1963 -4.55555,-2.12429 -4.58869,-2.05174 -4.62065,-1.97868 -4.65147,-1.90512 -4.68112,-1.83108 -4.70957,-1.75658 -4.73685,-1.68164 -4.76293,-1.60627 -4.78783,-1.5305 -4.8115,-1.45434 -4.83397,-1.37783 -4.85522,-1.30095 -4.87525,-1.22376 -4.89405,-1.14625 -4.91163,-1.06846 -4.92796,-0.99039 -4.94305,-0.91209 -4.9569,-0.83354 -4.9695,-0.75479 -4.98085,-0.67586 -4.99095,-0.59674 -4.99979,-0.51748 -5.00736,-0.43808 -5.01369,-0.35859 -5.01875,-0.27899 -5.02254,-0.19934 -5.02507,-0.11961 L 136.8,132.48"
       clip-path="url(#p55d7b36bdd)"
       style="fill:none;stroke:#000000;stroke-width:2;stroke-linecap:square"
       id="path2" />
  </g>
  <g
     id="line2d_2">
    <path
       d="M 136.8,449.28 360.81143,225.26857"
       clip-path="url(#p55d7b36bdd)"
       style="fill:none;stroke:#000000;stroke-linecap:square"
       id="path3" />
  </g>
  <g
     id="line2d_3">
    <path
       d="M 136.8,449.28 295.2,174.92315"
       clip-path="url(#p55d7b36bdd)"
       style="fill:none;stroke:#000000;stroke-linecap:square"
       id="path4" />
  </g>
  <g
     id="line2d_4">
    <path
       d="M 360.81143,225.26857 295.2,174.92315"
       clip-path="url(#p55d7b36bdd)"
       style="fill:none;stroke:#ff0000;stroke-linecap:square"
       id="path5" />
  </g>
  <g
     id="line2d_5">
    <path
       d="M 360.81143,449.28 V 225.26857"
       clip-path="url(#p55d7b36bdd)"
       style="fill:none;stroke:#000000;stroke-dasharray:3.7, 1.6;stroke-dashoffset:0"
       id="path6" />
  </g>
  <g
     id="line2d_6">
    <path
       d="M 295.2,449.28 V 174.92315"
       clip-path="url(#p55d7b36bdd)"
       style="fill:none;stroke:#000000;stroke-dasharray:1, 1.65;stroke-dashoffset:0"
       id="path7" />
  </g>
  <g
     id="line2d_7">
    <path
       d="M 136.8,449.28 H 453.6"
       clip-path="url(#p55d7b36bdd)"
       style="fill:none;stroke:#000000;stroke-linecap:square"
       id="path8" />
  </g>
  <g
     id="line2d_8">
    <path
       d="M 360.81143,225.26857 H 295.2"
       clip-path="url(#p55d7b36bdd)"
       style="fill:none;stroke:#008000;stroke-linecap:square"
       id="path9" />
  </g>
  <g
     id="line2d_9">
    <path
       d="m 181.60229,404.47771 -0.24001,-0.23873 -0.24129,-0.23744 -0.24254,-0.23616 -0.24381,-0.23485 -0.24506,-0.23355 -0.2463,-0.23223 -0.24754,-0.23092 -0.24876,-0.22959 -0.25,-0.22825 -0.2512,-0.22692 -0.25242,-0.22558 -0.25362,-0.22422 -0.25481,-0.22286 -0.256,-0.2215 -0.25718,-0.22013 -0.25835,-0.21875 -0.25952,-0.21736 -0.26067,-0.21598 -0.26183,-0.21458 -0.26296,-0.21318 -0.26411,-0.21177 -0.26523,-0.21036 -0.26635,-0.20894 -0.26746,-0.20751 -0.26857,-0.20608 -0.26966,-0.20464 -0.27076,-0.2032 -0.27183,-0.20175 -0.27291,-0.20029 -0.27398,-0.19883 -0.27503,-0.19737 -0.27609,-0.19589 -0.27713,-0.19441 -0.27816,-0.19294 -0.27919,-0.19144 -0.28021,-0.18995 -0.28122,-0.18845 -0.28222,-0.18694 -0.28322,-0.18543 -0.2842,-0.18392 -0.28519,-0.18239 -0.28615,-0.18088 -0.28711,-0.17933 -0.28807,-0.17781 -0.28902,-0.17625 -0.28995,-0.17472 -0.29088,-0.17316 -0.2918,-0.17161 -0.29272,-0.17004"
       clip-path="url(#p55d7b36bdd)"
       style="fill:none;stroke:#008000;stroke-linecap:square"
       id="path10" />
  </g>
  <g
     id="text_1"
     transform="rotate(-89.908449,324.4068,348.82828)">
    <!-- $\sin(x+\Delta x)$ -->
    <g
       style="fill:#333333"
       transform="matrix(0.12,0,0,-0.12,247.68,312.10158)"
       id="g18">
      <defs
         id="defs10">
        <path
           id="DejaVuSans-73"
           d="m 2834,3397 v -544 q -243,125 -506,187 -262,63 -544,63 -428,0 -642,-131 -214,-131 -214,-394 0,-200 153,-314 153,-114 616,-217 l 197,-44 q 612,-131 870,-370 258,-239 258,-667 0,-488 -386,-773 Q 2250,-91 1575,-91 1294,-91 989,-36 684,19 347,128 v 594 q 319,-166 628,-249 309,-82 613,-82 406,0 624,139 219,139 219,392 0,234 -158,359 -157,125 -692,241 l -200,47 q -534,112 -772,345 -237,233 -237,639 0,494 350,762 350,269 994,269 318,0 599,-47 282,-46 519,-140 z"
           transform="scale(0.015625)" />
        <path
           id="DejaVuSans-69"
           d="m 603,3500 h 575 V 0 H 603 Z m 0,1363 h 575 V 4134 H 603 Z"
           transform="scale(0.015625)" />
        <path
           id="DejaVuSans-6e"
           d="M 3513,2113 V 0 h -575 v 2094 q 0,497 -194,743 -194,247 -581,247 -466,0 -735,-297 -269,-296 -269,-809 V 0 H 581 v 3500 h 578 v -544 q 207,316 486,472 280,156 646,156 603,0 912,-373 310,-373 310,-1098 z"
           transform="scale(0.015625)" />
        <path
           id="DejaVuSans-28"
           d="m 1984,4856 q -418,-718 -622,-1422 -203,-703 -203,-1425 0,-721 205,-1429 205,-708 620,-1424 h -500 q -468,735 -701,1444 -233,709 -233,1409 0,697 231,1403 232,707 703,1444 z"
           transform="scale(0.015625)" />
        <path
           id="DejaVuSans-Oblique-78"
           d="M 3841,3500 2234,1784 3219,0 H 2559 L 1819,1388 531,0 H -166 L 1556,1844 641,3500 h 659 l 672,-1266 1172,1266 z"
           transform="scale(0.015625)" />
        <path
           id="DejaVuSans-2b"
           d="M 2944,4013 V 2272 H 4684 V 1741 H 2944 V 0 H 2419 V 1741 H 678 v 531 h 1741 v 1741 z"
           transform="scale(0.015625)" />
        <path
           id="DejaVuSans-394"
           d="M 2188,4044 906,525 H 3472 Z M 50,0 1831,4666 h 716 L 4325,0 Z"
           transform="scale(0.015625)" />
        <path
           id="DejaVuSans-29"
           d="m 513,4856 h 500 q 468,-737 701,-1444 233,-706 233,-1403 0,-700 -233,-1409 -233,-709 -701,-1444 H 513 q 415,716 620,1424 205,708 205,1429 0,722 -205,1425 -205,704 -620,1422 z"
           transform="scale(0.015625)" />
      </defs>
      <use
         xlink:href="#DejaVuSans-73"
         transform="translate(0,0.015625)"
         id="use10" />
      <use
         xlink:href="#DejaVuSans-69"
         transform="translate(52.099609,0.015625)"
         id="use11" />
      <use
         xlink:href="#DejaVuSans-6e"
         transform="translate(79.882812,0.015625)"
         id="use12" />
      <use
         xlink:href="#DejaVuSans-28"
         transform="translate(143.26172,0.015625)"
         id="use13" />
      <use
         xlink:href="#DejaVuSans-Oblique-78"
         transform="translate(182.27539,0.015625)"
         id="use14" />
      <use
         xlink:href="#DejaVuSans-2b"
         transform="translate(260.9375,0.015625)"
         id="use15" />
      <use
         xlink:href="#DejaVuSans-394"
         transform="translate(364.20898,0.015625)"
         id="use16" />
      <use
         xlink:href="#DejaVuSans-Oblique-78"
         transform="translate(432.61719,0.015625)"
         id="use17" />
      <use
         xlink:href="#DejaVuSans-29"
         transform="translate(491.79687,0.015625)"
         id="use18" />
    </g>
  </g>
  <g
     id="text_2"
     transform="rotate(-88.841213,364.85436,350.5995)">
    <!-- $\sin x$ -->
    <g
       style="fill:#333333"
       transform="matrix(0.12,0,0,-0.12,313.29143,337.27429)"
       id="g22">
      <use
         xlink:href="#DejaVuSans-73"
         transform="translate(0,0.015625)"
         id="use19" />
      <use
         xlink:href="#DejaVuSans-69"
         transform="translate(52.099609,0.015625)"
         id="use20" />
      <use
         xlink:href="#DejaVuSans-6e"
         transform="translate(79.882812,0.015625)"
         id="use21" />
      <use
         xlink:href="#DejaVuSans-Oblique-78"
         transform="translate(159.49739,0.015625)"
         id="use22" />
    </g>
  </g>
  <g
     style="fill:#2b0000"
     transform="matrix(0.12,0,0,-0.12,330.16292,188.13074)"
     id="g24">
    <use
       xlink:href="#DejaVuSans-394"
       transform="translate(0,0.09375)"
       id="use23"
       style="fill:#2b0000" />
    <use
       xlink:href="#DejaVuSans-Oblique-78"
       transform="translate(68.408203,0.09375)"
       id="use24"
       style="fill:#2b0000" />
  </g>
  <text
     xml:space="preserve"
     style="font-size:9px;fill:#2b0000;stroke-width:2.75;stroke-dasharray:none"
     x="318.38373"
     y="208.95348"
     id="text35"><tspan
       sodipodi:role="line"
       id="tspan35"
       style="fill:#ff0000;stroke-width:2.75"
       x="318.38373"
       y="208.95348">h</tspan></text>
  <g
     id="text_4">
    <!-- $1$ -->
    <g
       style="fill:#333333"
       transform="matrix(0.12,0,0,-0.12,263.52,480.96)"
       id="g25">
      <defs
         id="defs24">
        <path
           id="DejaVuSans-31"
           d="M 794,531 H 1825 V 4091 L 703,3866 v 575 l 1116,225 h 631 V 531 H 3481 V 0 H 794 Z"
           transform="scale(0.015625)" />
      </defs>
      <use
         xlink:href="#DejaVuSans-31"
         transform="translate(0,0.09375)"
         id="use25" />
    </g>
  </g>
  <g
     id="text_6"
     transform="translate(-19.5,10.5)">
    <!-- $\Delta x$ -->
    <g
       style="fill:#008000"
       transform="matrix(0.12,0,0,-0.12,159.53112,399.01313)"
       id="g34">
      <use
         xlink:href="#DejaVuSans-394"
         transform="translate(0,0.09375)"
         id="use33" />
      <use
         xlink:href="#DejaVuSans-Oblique-78"
         transform="translate(68.408203,0.09375)"
         id="use34" />
    </g>
  </g>
  <defs
     id="defs34">
    <clipPath
       id="p55d7b36bdd">
      <rect
         x="73.44"
         y="69.12"
         width="443.52"
         height="443.52"
         id="rect34" />
    </clipPath>
  </defs>
  <text
     xml:space="preserve"
     style="font-size:9px;fill:#000000;stroke-width:0.75"
     x="165.76744"
     y="439.53488"
     id="text34"><tspan
       sodipodi:role="line"
       id="tspan34"
       style="stroke-width:0.75"
       x="165.76744"
       y="439.53488">x</tspan></text>
  <text
     xml:space="preserve"
     style="font-size:9px;fill:#000000;stroke-width:0.75;stroke-linecap:butt;stroke-linejoin:round"
     x="300.19653"
     y="195.59085"
     id="text34-9"><tspan
       sodipodi:role="line"
       id="tspan34-3"
       style="stroke-width:0.75"
       x="300.19653"
       y="195.59085">x*</tspan></text>
  <path
     style="fill:none;stroke:#000000;stroke-width:2.75;stroke-linecap:butt;stroke-linejoin:miter;stroke-dasharray:none;stroke-opacity:1"
     d="m 177.08482,409.9368 c -0.0133,0.63784 -0.0747,1.27649 -0.0399,1.91352 0.0347,0.63508 2.95492,4.32222 3.39308,5.26218 0.94909,2.03607 1.4169,4.24461 2.47495,6.2588 0.81237,1.5465 1.96615,2.89504 2.5947,4.54461 0.89842,2.35779 1.07292,4.88 1.75642,7.2953 0.55157,1.94906 1.44048,3.75355 1.87618,5.74056 0.0976,0.44504 0.47444,6.80755 1.99593,6.97638"
     id="path34" />
  <g
     id="text_1-5"
     transform="rotate(-0.08400235,-59545.781,126238.43)"
     style="stroke-linecap:butt;stroke-linejoin:round">
    <!-- $\sin(x+\Delta x)$ -->
    <path
       style="fill:#0000ff;fill-opacity:0.916667;stroke:#1f20b7;stroke-width:2.15;stroke-dasharray:none;stroke-dashoffset:0;stroke-opacity:1"
       d="m 478.98129,263.09887 c 0.22309,49.72807 0.22309,49.72807 0.22309,49.72807"
       id="path48" />
    <text
       xml:space="preserve"
       style="font-size:9px;fill:#0000ff;fill-opacity:0.916667;stroke:#1f20b7;stroke-width:0;stroke-dasharray:none;stroke-dashoffset:0;stroke-opacity:1"
       x="442.09488"
       y="340.36392"
       id="text48"
       transform="rotate(0.08400252)"><tspan
         sodipodi:role="line"
         id="tspan48"
         style="stroke-width:0;stroke-dasharray:none"
         x="442.09488"
         y="340.36392">h cos x*</tspan></text>
  </g>
  <path
     style="fill:none;stroke:#000000;stroke-width:0.75px;stroke-linecap:butt;stroke-linejoin:miter;stroke-opacity:1"
     d="m 295.40619,202.16676 c 1.27632,-0.0825 2.75716,0.24941 3.84798,-0.296 0.39137,-0.19569 0.96416,0.10992 1.77598,-0.296 0.25877,-0.12937 0.93405,0.0625 1.184,0 0.64969,-0.16242 0.67509,-0.63354 1.18399,-0.88799 0.1765,-0.0882 0.4155,0.0883 0.59199,0 0.24961,-0.1248 0.3598,-0.4372 0.592,-0.592 0.36714,-0.24475 0.87199,-0.27998 1.184,-0.592 0.33546,-0.33546 0.39741,-0.9387 0.88799,-1.18398 0.17939,-0.0897 0.76396,-0.17197 0.888,-0.29601 0.0697,-0.0697 -0.0697,-0.22623 0,-0.29599 0.13953,-0.13954 0.41549,0.0883 0.59199,0 0.672,-0.336 1.17913,-1.32835 1.77599,-1.77599 0.1765,-0.13238 0.43599,-0.13999 0.592,-0.296 0.0697,-0.0697 0,-0.19733 0,-0.29599 0.0987,-0.0987 0.1799,-0.21861 0.29599,-0.29601 0.18357,-0.12237 0.43599,-0.13999 0.592,-0.29599 0.16725,-0.16725 0.3715,-0.9635 0.592,-1.184 0.0697,-0.0697 0.22623,0.0697 0.29599,0 0.0987,-0.0987 0.19734,-0.78933 0.29601,-0.88799 0.18185,-0.18185 0.68976,-0.19555 0.88799,-0.592 0.33548,-0.67095 0.85303,-2.07198 1.47999,-2.07198"
     id="path47" />
</svg>
